#tb 0: 1/22050
#media_type 0: audio
#codec_id 0: pcm_s16le
#sample_rate 0: 22050
#channel_layout 0: 3
#channel_layout_name 0: stereo
0,          0,          0,     1856,     7424, 0x18540b36
0,       1856,       1856,     1824,     7296, 0x5acd2484
0,       3680,       3680,     1856,     7424, 0xa1bc5c5a
0,       5536,       5536,     1824,     7296, 0x71a02ad1
0,       7360,       7360,     1856,     7424, 0x09cc32f2
0,       9216,       9216,     1824,     7296, 0xa3451726
0,      11040,      11040,     1824,     7296, 0x1eb40a18
0,      12864,      12864,     1856,     7424, 0xc55a2acf
0,      14720,      14720,     1824,     7296, 0x5b9fad3f
0,      16544,      16544,     1856,     7424, 0xea651ae7
0,      18400,      18400,     1824,     7296, 0x2bd5ddb6
0,      20224,      20224,     1856,     7424, 0xde4243b4
0,      22080,      22080,     1824,     7296, 0x358806d3
0,      23904,      23904,     1824,     7296, 0x511a144e
0,      25728,      25728,     1856,     7424, 0x887a3e84
0,      27584,      27584,     1824,     7296, 0xfeae2a0c
0,      29408,      29408,     1856,     7424, 0xa4ea5d22
0,      31264,      31264,     1824,     7296, 0xb3adf7fa
0,      33088,      33088,     1856,     7424, 0xce995dcc
0,      34944,      34944,     1824,     7296, 0x5b4cf574
0,      36768,      36768,     1824,     7296, 0x8a70eaf0
